<svg enable-background="new 0 0 432 574" height="574" viewBox="0 0 432 574" width="432" xmlns="http://www.w3.org/2000/svg"><g fill="#c00"><path d="m217.074 360.93c-71.239 0-129.052-57.721-129.052-128.972 0-71.38 57.813-129.059 129.052-129.059 71.301 0 129.042 57.679 129.042 129.059 0 71.251-57.741 128.972-129.042 128.972m0-322.471c-106.796 0-193.399 86.625-193.399 193.499 0 106.792 86.603 193.39 193.399 193.39 106.842 0 193.581-86.598 193.581-193.39 0-106.874-86.739-193.499-193.581-193.499z"/><path d="m217.074 165.651c-36.607 0-66.268 29.589-66.268 66.307 0 36.597 29.66 66.274 66.268 66.274 36.642 0 66.367-29.678 66.367-66.274 0-36.717-29.725-66.307-66.367-66.307"/><path d="m42.153 475.816h-21.331v-13.164h58.314v13.164h-21.331v58.016h-15.652z"/><path d="m72.358 533.832h15.843l5.587-15.855h26.617l5.385 15.855h16.246l-26.617-71.18h-16.046zm34.789-53.641h.196l8.968 26.123h-18.429z"/><path d="m148.209 533.832h15.659v-27.812h15.641c7.883 0 10.768 3.287 11.862 10.76.807 5.684.604 12.564 2.5 17.053h15.642c-2.788-3.986-2.685-12.371-2.988-16.855-.501-7.188-2.685-14.656-10.367-16.648v-.197c7.885-3.188 11.271-9.461 11.271-17.846 0-10.758-8.081-19.631-20.837-19.631h-38.382zm15.659-59.018h17.149c6.967 0 10.758 2.992 10.758 9.863 0 7.174-3.791 10.17-10.758 10.17h-17.149z"/><path d="m269.624 525.752c-5.488 7.088-12.653 9.789-19.535 9.789-22.026 0-34.989-16.475-34.989-37.012 0-21.123 12.962-37.564 34.989-37.564 14.55 0 28.312 8.971 30.011 25.107h-14.961c-1.798-7.883-7.678-11.955-15.05-11.955-14.057 0-19.348 11.955-19.348 24.412 0 11.869 5.291 23.826 19.348 23.826 10.171 0 16.04-5.479 16.942-15.354h-15.743v-11.65h29.899v38.48h-9.976z"/><path d="m291.857 462.652h53.214v13.164h-37.565v15.245h34.484v12.173h-34.484v17.434h38.372v13.164h-54.021z"/><path d="m374.188 475.816h-21.332v-13.164h58.322v13.164h-21.343v58.016h-15.647z"/></g></svg>